<svg width="128" height="128" viewBox="0 0 128 128" fill="none" xmlns="http://www.w3.org/2000/svg">
<path fill-rule="evenodd" clip-rule="evenodd" d="M0 0H128V128H0V0Z" fill="black"/>
<path fill-rule="evenodd" clip-rule="evenodd" d="M96.0068 82.0512L98.8011 72.1621H32.7943L30 82.0512H96.0068Z" fill="white"/>
<path fill-rule="evenodd" clip-rule="evenodd" d="M38.1931 75.5734C38.0723 75.2925 37.7542 75.1591 37.3916 75.1591C36.9626 75.1591 36.4785 75.3516 36.3437 75.8331C36.0489 76.8849 38.7051 76.2846 38.1812 78.1506C37.8651 79.2762 36.8232 79.824 35.7939 79.824C35.1425 79.824 34.5621 79.6242 34.2759 79.1135L35.1704 78.4322C35.3025 78.7801 35.6385 78.9807 36.0529 78.9807C36.4825 78.9807 37.0377 78.7436 37.1731 78.2622C37.4952 77.1147 34.8217 77.7741 35.3477 75.9001C35.6511 74.8191 36.7548 74.3157 37.725 74.3157C38.2728 74.3157 38.7768 74.4704 39.0763 74.8556L38.1931 75.5734ZM44.9379 74.315C46.5828 74.2852 47.4294 75.3809 46.9586 77.0622C46.7409 77.8454 46.2761 78.5373 45.6332 79.0349C44.9904 79.5324 44.2041 79.809 43.3913 79.8234C41.777 79.8234 40.9297 78.7277 41.3885 77.0915C41.8607 75.4101 43.3236 74.315 44.9379 74.315ZM43.6357 78.98C44.7247 78.98 45.6763 78.1506 45.9898 77.0324C46.2826 75.9885 45.7965 75.1591 44.7081 75.1591C43.6271 75.1591 42.6761 75.9885 42.3833 77.0324C42.0692 78.15 42.5553 78.98 43.6357 78.98ZM50.8015 74.4479H51.7358L50.5007 78.8459H52.7292L52.4928 79.6906H49.3306L50.8015 74.4479ZM60.1334 77.7648C59.9714 78.3544 59.6208 78.8747 59.1354 79.2464C58.6499 79.6181 58.0561 79.8207 57.4447 79.8234C56.2461 79.8234 55.5574 79.0312 55.9127 77.7648L56.8437 74.4479H57.776L56.8537 77.7349C56.7069 78.2536 56.7979 78.9349 57.6944 78.9349C58.5908 78.9349 59.063 78.2542 59.2077 77.7349L60.1314 74.4479H61.0638L60.1334 77.7648ZM65.2705 75.2925H63.6649L63.9013 74.4479H68.0476L67.8119 75.2925H66.2049L64.9697 79.6906H64.0374L65.2705 75.2925ZM70.8851 74.4479H71.8181L70.3472 79.6906H69.4136L70.8851 74.4479ZM77.7129 74.315C79.3577 74.2852 80.2044 75.3809 79.7336 77.0622C79.5159 77.8453 79.0512 78.5371 78.4085 79.0347C77.7658 79.5322 76.9796 79.8088 76.167 79.8234C74.552 79.8234 73.7053 78.7277 74.1642 77.0915C74.6363 75.4101 76.0979 74.315 77.7129 74.315ZM76.4107 78.98C77.4991 78.98 78.4507 78.1506 78.7648 77.0324C79.0563 75.9885 78.5715 75.1591 77.4831 75.1591C76.4014 75.1591 75.4505 75.9885 75.1576 77.0324C74.8435 78.15 75.3303 78.98 76.4107 78.98ZM83.5765 74.4479H84.8136L86.2599 78.3432L86.2699 78.3578H86.2559L86.2752 78.3432L87.3675 74.4479H88.3012L86.829 79.6906H85.645L84.1821 75.6697H84.1661L83.0379 79.6906H82.1056L83.5765 74.4479ZM93.947 75.5734C93.8248 75.2925 93.5074 75.1591 93.1441 75.1591C92.7158 75.1591 92.2311 75.3516 92.0963 75.8331C91.8021 76.8849 94.4583 76.2846 93.9344 78.1506C93.6189 79.2762 92.5764 79.824 91.5464 79.824C90.8957 79.824 90.3146 79.6242 90.0291 79.1135L90.9229 78.4322C91.055 78.7801 91.391 78.9807 91.8061 78.9807C92.2351 78.9807 92.7902 78.7436 92.927 78.2622C93.2484 77.1147 90.5756 77.7741 91.1009 75.9001C91.4043 74.8191 92.508 74.3157 93.4782 74.3157C94.0267 74.3157 94.5313 74.4704 94.8295 74.8556L93.947 75.5734Z" fill="black"/>
<path fill-rule="evenodd" clip-rule="evenodd" d="M100.202 55.6508H100.885C101.311 55.6508 101.51 55.8428 101.51 56.1841C101.51 56.4929 101.327 56.6423 101.084 56.6722L101.547 57.4219H101.204L100.764 56.6967H100.525V57.4219H100.201V55.6508H100.202ZM100.526 56.4225H100.764C100.964 56.4225 101.185 56.4092 101.185 56.1721C101.185 55.9344 100.964 55.9218 100.764 55.9258H100.526V56.4225ZM100.798 54.9961C101.209 54.997 101.603 55.1607 101.893 55.4515C102.184 55.7422 102.347 56.1363 102.348 56.5473C102.347 56.9582 102.184 57.3519 101.893 57.6425C101.603 57.9331 101.209 58.0968 100.798 58.0979C100.387 58.0973 99.9928 57.9338 99.702 57.6432C99.4112 57.3525 99.2475 56.9584 99.2468 56.5473C99.2474 56.1361 99.411 55.7418 99.7017 55.451C99.9925 55.1602 100.387 54.9966 100.798 54.9961ZM100.798 57.823C101.136 57.823 101.461 57.6886 101.7 57.4494C101.939 57.2103 102.073 56.8859 102.073 56.5476C102.073 56.2094 101.939 55.885 101.7 55.6459C101.461 55.4067 101.136 55.2723 100.798 55.2723C100.628 55.2685 100.459 55.2986 100.301 55.3609C100.143 55.4233 99.9988 55.5166 99.8773 55.6354C99.7557 55.7542 99.6591 55.8961 99.5932 56.0528C99.5273 56.2094 99.4933 56.3777 99.4933 56.5476C99.4933 56.7176 99.5273 56.8859 99.5932 57.0425C99.6591 57.1992 99.7557 57.3411 99.8773 57.4599C99.9988 57.5787 100.143 57.672 100.301 57.7344C100.459 57.7967 100.628 57.8268 100.798 57.823Z" fill="white"/>
<path fill-rule="evenodd" clip-rule="evenodd" d="M43.8038 58.2971C43.4459 57.6616 42.7672 57.3011 41.7619 57.3011C39.7153 57.3011 37.7417 58.9499 37.1015 61.217C36.4614 63.484 37.5046 65.1329 39.4642 65.1329C40.5566 65.1329 41.5766 64.6514 42.3648 63.8273L44.1491 65.4935C42.7188 66.9364 40.7957 67.6058 39.1136 67.6058C35.2814 67.6058 33.1923 65.1156 34.2926 61.217C35.3929 57.3183 38.8878 54.8281 42.7194 54.8281C44.0894 54.8281 45.6931 55.2916 46.3598 56.6144L43.8038 58.2971ZM55.8796 55.1369H58.1155L60.0246 67.297H56.9726L56.6419 64.7205H51.8727L50.1229 67.297H47.14L55.8796 55.1369ZM55.9214 58.675L53.3635 62.4534H56.3637L55.9214 58.675ZM68.6513 57.5076H65.1478L65.8172 55.1369H75.5276L74.8582 57.5076H71.3554L68.5929 67.297H65.8875L68.6513 57.5076ZM81.5459 55.1369H84.2512L80.8194 67.297H78.1141L81.5459 55.1369ZM95.0016 55.1369H97.2375L99.1466 67.297H96.0946L95.7639 64.7205H90.9947L89.2449 67.297H86.262L95.0016 55.1369ZM95.0434 58.675L92.4855 62.4534H95.4857L95.0434 58.675Z" fill="white"/>
</svg>
