<svg width="128" height="128" viewBox="0 0 128 128" fill="none" xmlns="http://www.w3.org/2000/svg">
<path d="M120.25 51.0461C118.783 44.7623 116.262 38.7724 112.794 33.3309C107.594 30.2011 101.997 27.7858 96.1536 26.1501C91.4432 15.9997 80.9152 9.47168 67.776 8.49888C68.2496 7.91008 68.7296 7.33408 69.1968 6.77728C67.5136 6.63008 65.8112 6.54688 64.0768 6.54688H63.7888C63.3088 7.15488 62.8288 7.76928 62.3424 8.40288C60.2121 8.49432 58.0895 8.71876 55.9872 9.07488C52.1892 9.73638 48.4745 10.8094 44.9088 12.2749L43.9424 10.2077C42.5984 10.7133 41.2864 11.2701 39.9872 11.8717L40.9984 14.0413C35.1912 16.9479 29.981 20.9185 25.6384 25.7469C24.1088 25.7469 22.5984 25.8045 21.12 25.8749C19.8308 27.3254 18.6154 28.8398 17.4784 30.4125C19.0656 30.2717 20.6784 30.1629 22.2208 30.0989C17.7408 36.5885 15.4496 43.6413 15.616 50.5789C15.6944 54.4705 16.6112 58.2994 18.304 61.8045C15.522 68.2962 13.9162 75.2307 13.5616 82.2845C10.5161 78.309 8.21752 73.8137 6.77759 69.0173C7.26585 74.733 8.61215 80.3426 10.7712 85.6573C11.6672 86.7837 12.608 87.8781 13.6 88.9277C13.664 89.9837 13.7536 91.0205 13.8688 92.0637C15.6109 95.1927 17.6421 98.1518 19.936 100.902C19.2339 98.426 18.7014 95.905 18.3424 93.3565C26.6271 100.111 36.6192 104.441 47.2128 105.868C48.8571 110.845 50.7693 115.729 52.9408 120.499C54.6048 120.825 56.2944 121.094 58.0096 121.273C55.6926 116.421 53.6499 111.443 51.8912 106.361C57.5117 106.722 63.1552 106.33 68.672 105.196C73.1338 104.278 77.4957 102.928 81.696 101.164L88.6912 116.147C89.9712 115.507 91.2512 114.867 92.4928 114.169L85.5936 99.3917C94.6991 94.9548 102.673 88.5 108.909 80.5181C111.002 83.7629 113.082 87.2509 115.098 90.9053C115.917 89.3565 116.659 87.7629 117.338 86.1373C115.494 82.9373 113.562 79.7885 111.578 76.7741C116.87 68.6845 119.834 59.8845 120.25 51.0461ZM92.96 29.7341C93.8207 32.104 94.2877 34.5989 94.3424 37.1197C94.3797 42.219 93.0918 47.2406 90.6048 51.6925C85.0322 46.485 78.8999 41.911 72.32 38.0541C73.0552 36.1061 73.4157 34.0367 73.3824 31.9549C73.354 30.6542 73.1539 29.3631 72.7872 28.1149C74.4128 27.9869 75.9872 27.9165 77.5104 27.9101H77.8432C82.9367 27.9144 88.0116 28.5267 92.96 29.7341ZM41.2928 73.9837C33.1776 72.1597 26.7392 67.7885 23.072 61.6189C25.7726 55.9051 29.4039 50.6798 33.8176 46.1565C34.112 45.8557 34.4128 45.5677 34.7136 45.2733C36.5555 48.3794 39.43 50.7398 42.8352 51.9421C41.5175 59.2109 41.0003 66.6022 41.2928 73.9837ZM38.0096 42.2397C40.8796 39.8204 43.9718 37.6775 47.2448 35.8397C45.8214 39.7104 44.6436 43.667 43.7184 47.6861C41.1979 46.6537 39.1594 44.7088 38.0096 42.2397ZM37.12 37.4461C37.2895 35.1325 38.033 32.8977 39.2832 30.9437C41.3632 31.2509 43.3344 31.5837 45.2416 32.0253C42.4016 33.6249 39.6866 35.437 37.12 37.4461ZM47.008 52.9597C49.2715 53.2527 51.567 53.1901 53.8112 52.7741C55.4101 52.4889 56.9771 52.0473 58.4896 51.4557L67.7696 71.2957C64.4724 72.639 61.0389 73.6197 57.5296 74.2205C53.5999 74.906 49.5953 75.0545 45.6256 74.6621C45.2714 67.399 45.7352 60.1191 47.008 52.9597ZM51.5328 36.5629L56.6528 47.5709C55.4841 48.0081 54.2781 48.3379 53.0496 48.5565C51.3332 48.8684 49.5811 48.9331 47.8464 48.7485C48.7982 44.6079 50.0298 40.5367 51.5328 36.5629ZM49.7984 22.7197C50.8781 22.3287 51.9894 22.031 53.12 21.8301L53.6896 21.7341C52.896 23.1677 52.128 24.6397 51.3984 26.1245L49.7984 22.7197ZM55.5584 27.3789C56.5056 25.4589 57.5296 23.6093 58.6496 21.6829C61.2455 21.9677 63.6971 23.0219 65.6896 24.7101C62.2451 25.3299 58.8552 26.2223 55.552 27.3789H55.5584ZM68.416 28.6141C68.823 29.7172 69.0394 30.8816 69.056 32.0573C69.0761 33.3833 68.8816 34.7038 68.48 35.9677C65.1822 34.2504 61.784 32.733 58.304 31.4237L57.6256 31.1805C61.1369 30.0049 64.7458 29.1439 68.4096 28.6077L68.416 28.6141ZM56.8128 35.4365C60.1786 36.6994 63.4637 38.1678 66.6496 39.8333C65.0593 42.2101 62.9689 44.2109 60.5248 45.6957L55.52 34.9693C55.9488 35.1229 56.384 35.2765 56.8128 35.4365ZM62.3424 49.5869C65.5804 47.6861 68.3305 45.0565 70.3744 41.9069C76.8358 45.7185 82.8471 50.2463 88.2944 55.4045C83.9757 61.3994 78.2653 66.2554 71.6544 69.5549L62.3424 49.5869ZM64.5824 12.6461C75.7952 12.7037 85.3376 17.2221 90.4576 24.8061C86.2927 24.016 82.0631 23.6174 77.824 23.6157H77.44C75.2576 23.6157 72.9984 23.7437 70.72 23.9869C68.3733 20.7768 64.9178 18.553 61.024 17.7469C62.1632 16.0509 63.36 14.3293 64.5824 12.6461ZM56.7168 13.2861C57.504 13.1517 58.2912 13.0365 59.072 12.9469C58.1312 14.3613 57.1968 15.7949 56.32 17.2797C55.0027 17.2893 53.6884 17.407 52.3904 17.6317C50.8932 17.8948 49.4236 18.2955 48 18.8285L46.72 16.1469C49.9441 14.8487 53.2974 13.8983 56.7232 13.3117L56.7168 13.2861ZM45.92 24.5309L47.6288 28.1917C45.888 27.7757 44.1536 27.4173 42.4512 27.1165C43.5137 26.1355 44.6764 25.2689 45.92 24.5309ZM42.8224 17.9197L44.1024 20.6653C41.5269 22.1495 39.2362 24.0805 37.3376 26.3677C35.4176 26.1437 33.44 25.9773 31.4112 25.8749C34.8059 22.6799 38.6504 19.9997 42.8224 17.9197ZM27.584 30.0093C29.9008 30.0413 32.2944 30.1757 34.7264 30.3997C33.4456 32.8844 32.7868 35.6428 32.8064 38.4381C32.8267 39.2591 32.9166 40.077 33.0752 40.8829C32.3008 41.5997 31.5136 42.3805 30.72 43.1677C26.8415 47.1547 23.5197 51.6476 20.8448 56.5245C20.2625 54.5508 19.9461 52.5082 19.904 50.4509C19.744 43.5645 22.464 36.3133 27.584 30.0093ZM17.7984 87.1357V86.7133C17.628 79.7837 18.7546 72.8833 21.12 66.3677C25.76 72.4989 32.9664 76.7485 41.6 78.4125C42.2471 86.1701 43.6686 93.8435 45.8432 101.318C35.0144 99.3981 25.1136 94.3805 17.7984 87.1357ZM67.84 101.004C63.9421 101.806 59.9731 102.211 55.9936 102.214C54.208 102.214 52.4032 102.131 50.4896 101.952C48.1948 94.4838 46.6742 86.7996 45.952 79.0205C50.0543 79.37 54.1846 79.1872 58.24 78.4765C62.123 77.8046 65.92 76.7057 69.5616 75.1997L79.8848 97.2797C75.9989 98.9056 71.9653 100.153 67.84 101.004ZM83.84 95.5261L73.5104 73.4013C80.5786 69.8712 86.7173 64.7279 91.4304 58.3869C96.9702 64.0548 102.001 70.199 106.464 76.7485C100.525 84.7393 92.7467 91.1805 83.7888 95.5261H83.84ZM93.7664 54.7197C96.9891 49.3756 98.6724 43.2449 98.6304 37.0045C98.5841 35.0332 98.3288 33.0723 97.8688 31.1549C104.01 33.1871 109.803 36.1484 115.046 39.9357C115.277 40.9661 115.475 42.0093 115.629 43.0589C117.062 53.1197 114.752 63.4237 108.954 72.9597C104.43 66.4505 99.3485 60.3474 93.7664 54.7197Z" fill="white"/>
<path d="M121.651 60.8001C121.651 60.8001 121.651 60.7361 121.651 60.7041C121.591 59.6716 121.504 58.6433 121.389 57.6193C121.389 57.4657 121.35 57.3185 121.331 57.1649C121.222 56.2497 121.094 55.3409 120.941 54.4321C120.941 54.2721 120.883 54.1121 120.851 53.9457C120.685 53.0241 120.506 52.1089 120.294 51.2001C120.294 51.1425 120.294 51.0849 120.256 51.0273C119.834 59.8657 116.877 68.6657 111.571 76.7617C113.568 79.7825 115.507 82.9377 117.331 86.1377C118.057 84.3969 118.697 82.6305 119.251 80.8385L119.283 80.7169C119.812 78.9676 120.258 77.1991 120.621 75.4113C120.621 75.3281 120.621 75.2385 120.666 75.1553C121.011 73.3825 121.306 71.5905 121.459 69.7857C121.459 69.7473 121.459 69.7153 121.459 69.6769C121.638 67.8081 121.741 65.9073 121.734 63.9873C121.747 62.9313 121.709 61.8625 121.651 60.8001Z" fill="black"/>
<path d="M37.3377 26.3676C39.2346 24.0735 41.5254 22.136 44.1025 20.646L42.8225 17.9004C38.6493 19.9863 34.8046 22.673 31.4113 25.8748C33.4401 25.9772 35.3921 26.1436 37.3377 26.3676Z" fill="black"/>
<path d="M55.9616 102.214C59.9518 102.213 63.9316 101.808 67.84 101.004C71.9758 100.159 76.0202 98.9155 79.9168 97.292L69.568 75.1992C65.9243 76.7057 62.1252 77.8046 58.24 78.476C54.172 79.19 50.0286 79.3729 45.9136 79.02C46.6358 86.7991 48.1563 94.4833 50.4512 101.951C52.3712 102.13 54.176 102.214 55.9616 102.214Z" fill="black"/>
<path d="M106.4 76.7483C101.937 70.1988 96.9063 64.0546 91.3664 58.3867C86.6533 64.7277 80.5147 69.871 73.4464 73.4011L83.776 95.5259C92.7153 91.1734 100.475 84.7328 106.4 76.7483Z" fill="black"/>
<path d="M81.696 101.172C77.4957 102.935 73.1338 104.285 68.672 105.204C63.1552 106.337 57.5117 106.729 51.8912 106.369C53.6501 111.454 55.6927 116.437 58.0096 121.293C60.541 121.563 63.087 121.67 65.632 121.613H66.5472C67.3088 121.613 68.0576 121.53 68.8064 121.466C70.0864 121.364 71.3664 121.229 72.6016 121.044L73.024 120.986C73.8304 120.865 74.6304 120.711 75.424 120.551L76.2176 120.385C76.9792 120.218 77.7408 120.052 78.496 119.853C78.88 119.751 79.2576 119.642 79.6416 119.533C80.5547 119.277 81.4571 119 82.3488 118.701C83.1296 118.439 83.904 118.17 84.672 117.876L85.5744 117.517C86.528 117.133 87.4944 116.73 88.4096 116.295L88.6912 116.173L81.696 101.172Z" fill="black"/>
<path d="M53.12 21.8298C51.9916 22.0312 50.8824 22.3288 49.8048 22.7194L51.3984 26.1306C52.1344 24.6458 52.9024 23.1802 53.6896 21.7402L53.12 21.8298Z" fill="black"/>
<path d="M37.12 37.446C39.6878 35.4278 42.405 33.6071 45.248 31.9996C43.328 31.5836 41.3696 31.2252 39.2896 30.918C38.0331 32.8789 37.2873 35.123 37.12 37.446Z" fill="black"/>
<path d="M41.5552 78.4139C32.9408 76.7499 25.7344 72.5003 21.0752 66.3691C18.709 72.8868 17.5825 79.7894 17.7536 86.7211V87.1435C25.0688 94.3883 34.976 99.3996 45.76 101.326C43.598 93.8479 42.1894 86.1724 41.5552 78.4139Z" fill="black"/>
<path d="M108.909 80.5254C102.673 88.5073 94.6991 94.9621 85.5936 99.399L92.4928 114.177L92.6976 114.055C93.7643 113.445 94.8075 112.805 95.8272 112.135L96.0896 111.969C97.12 111.284 98.1184 110.561 99.0976 109.812C99.3344 109.633 99.5584 109.447 99.7952 109.261C100.55 108.668 101.289 108.056 102.01 107.425C102.246 107.22 102.49 107.021 102.72 106.785C103.565 106.023 104.384 105.236 105.178 104.423C105.434 104.161 105.683 103.892 105.939 103.623C106.562 102.966 107.17 102.294 107.763 101.607C107.968 101.364 108.186 101.127 108.403 100.884C109.163 99.9707 109.897 99.0321 110.605 98.0678L110.989 97.5302C111.646 96.6129 112.286 95.6763 112.909 94.7206L113.146 94.3558C113.837 93.2422 114.492 92.103 115.11 90.9382V90.8934C113.082 87.2518 111.002 83.7638 108.909 80.5254Z" fill="black"/>
<path d="M57.6384 31.1802L58.3168 31.4234C61.7925 32.7332 65.1864 34.2506 68.48 35.9674C68.8845 34.7019 69.0812 33.3791 69.0624 32.0506C69.0459 30.8749 68.8295 29.7106 68.4224 28.6074C64.7586 29.1437 61.1497 30.0047 57.6384 31.1802Z" fill="black"/>
<path d="M55.552 27.3796C58.8615 26.222 62.2578 25.3296 65.7088 24.7108C63.7163 23.0226 61.2647 21.9684 58.6688 21.6836C57.5232 23.61 56.4992 25.4852 55.552 27.3796Z" fill="black"/>
<path d="M57.5296 74.2394C61.0389 73.6386 64.4724 72.6579 67.7696 71.3146L58.4896 51.4746C56.9771 52.0662 55.4101 52.5078 53.8112 52.793C51.567 53.209 49.2716 53.2716 47.008 52.9786C45.7309 60.1569 45.2671 67.4564 45.6256 74.7386C49.5979 75.1121 53.6025 74.9441 57.5296 74.2394Z" fill="black"/>
<path d="M42.4512 27.1168C44.1536 27.4176 45.8816 27.7568 47.6288 28.192L45.92 24.5312C44.6764 25.2693 43.5137 26.1359 42.4512 27.1168Z" fill="black"/>
<path d="M90.6048 51.687C93.0906 47.237 94.3785 42.2178 94.3424 37.1206C94.2869 34.602 93.82 32.1093 92.9599 29.7414C88.003 28.5342 82.9194 27.924 77.8175 27.9238H77.4847C75.9359 27.9238 74.3871 28.0006 72.7615 28.1286C73.1283 29.3768 73.3284 30.668 73.3567 31.9686C73.3966 34.0445 73.0448 36.1094 72.3199 38.055C78.8995 41.91 85.0319 46.4818 90.6048 51.687Z" fill="black"/>
<path d="M46.72 16.1404L48 18.822C49.4206 18.2807 50.8882 17.8715 52.384 17.5996C53.685 17.3854 55.0014 17.2784 56.32 17.2796C57.216 15.8204 58.1504 14.3868 59.0976 12.998C58.3104 13.0876 57.5296 13.2028 56.7424 13.3372C53.3113 13.9122 49.9515 14.8519 46.72 16.1404Z" fill="black"/>
<path d="M27.584 30.0098C22.464 36.3202 19.744 43.565 19.904 50.4514C19.9461 52.5087 20.2625 54.5513 20.8448 56.525C23.5197 51.6481 26.8415 47.1552 30.72 43.1682C31.4816 42.3874 32.2688 41.6258 33.0688 40.8898C32.9102 40.0839 32.8203 39.266 32.8 38.445C32.7804 35.6496 33.4392 32.8913 34.72 30.4066C32.2944 30.1698 29.9008 30.0418 27.584 30.0098Z" fill="black"/>
<path d="M66.6496 39.8327C63.4638 38.1672 60.1787 36.6989 56.8128 35.4359C56.384 35.2759 55.9488 35.1223 55.5328 34.9688L60.5248 45.6951C62.969 44.2104 65.0593 42.2096 66.6496 39.8327Z" fill="black"/>
<path d="M70.7456 24.0068C73.024 23.77 75.2832 23.6484 77.4656 23.6356H77.8176C82.0567 23.6374 86.2864 24.0359 90.4512 24.826C85.3312 17.2164 75.7952 12.7044 64.576 12.666C63.3408 14.3492 62.1568 16.0644 61.0432 17.786C64.9364 18.5858 68.394 20.8027 70.7456 24.0068Z" fill="black"/>
<path d="M53.0688 48.5639C54.2972 48.3454 55.5033 48.0155 56.672 47.5783L51.552 36.5703C50.0566 40.5363 48.8314 44.5989 47.8848 48.7303C49.6119 48.9215 51.3575 48.8655 53.0688 48.5639Z" fill="black"/>
<path d="M34.7136 45.2734C34.4128 45.5614 34.112 45.8558 33.8176 46.1566C29.4039 50.6799 25.7726 55.9052 23.072 61.619C26.7392 67.7886 33.1776 72.1534 41.2928 73.9838C40.9982 66.6026 41.5133 59.2113 42.8288 51.9422C39.426 50.7387 36.5539 48.3784 34.7136 45.2734Z" fill="black"/>
<path d="M18.304 61.8049C16.6086 58.294 15.6916 54.4582 15.616 50.5601C15.4496 43.6353 17.7344 36.5889 22.2208 30.0801C20.6592 30.1441 19.0656 30.2529 17.4784 30.3937H17.44C17.2416 30.6689 17.0688 30.9633 16.8768 31.2449C16.4203 31.9105 15.9787 32.5889 15.552 33.2801C15.1552 33.9201 14.7712 34.5281 14.4 35.1617C14.0288 35.7953 13.5872 36.5761 13.2096 37.2929C12.9216 37.8369 12.64 38.3809 12.3712 38.9313C12.0064 39.6737 11.6672 40.4225 11.3408 41.1777C11.0144 41.9329 10.7008 42.6881 10.4064 43.4561C10.176 44.0534 9.96269 44.6529 9.76642 45.2545C9.56162 45.8369 9.35682 46.4193 9.17122 47.0145C8.85549 48.0214 8.56962 49.039 8.31362 50.0673C8.17922 50.6049 8.05762 51.1489 7.94242 51.6929C7.76322 52.5035 7.60322 53.3185 7.46242 54.1377C7.39202 54.5601 7.30242 54.9761 7.23842 55.4177C7.05922 56.6145 6.91842 57.8241 6.81602 59.0337C6.78402 59.4241 6.75202 59.8145 6.72642 60.2113C6.64322 61.4465 6.58562 62.6817 6.57922 63.9297C6.57922 63.9937 6.57922 64.0513 6.57922 64.1153C6.57922 64.1793 6.57922 64.1537 6.57922 64.1729C6.57922 64.1921 6.57922 64.2113 6.57922 64.2305C6.57922 64.4865 6.57922 64.7361 6.57922 64.9921C6.57922 65.5425 6.57922 66.0865 6.62402 66.6369C6.66242 67.4177 6.71362 68.2241 6.78402 69.0625C8.22473 73.8495 10.521 78.3359 13.5616 82.3041C13.914 75.2438 15.5199 68.3026 18.304 61.8049Z" fill="black"/>
<path d="M62.3424 49.5873L71.68 69.5425C78.2909 66.2431 84.0013 61.387 88.32 55.3921C82.8727 50.234 76.8615 45.7062 70.4 41.8945C68.3504 45.0518 65.5912 47.6861 62.3424 49.5873Z" fill="black"/>
<path d="M10.7072 85.5938C11.623 87.8474 12.6812 90.0406 13.8752 92.1601C13.7536 91.0913 13.664 90.0161 13.6 88.9601C12.5845 87.8721 11.6202 86.75 10.7072 85.5938Z" fill="black"/>
<path d="M47.2448 35.8398C43.9718 37.6777 40.8797 39.8205 38.0096 42.2398C39.17 44.6933 41.2099 46.6212 43.7248 47.6414C44.6497 43.6377 45.8254 39.6961 47.2448 35.8398Z" fill="black"/>
<path d="M18.3424 93.3633C18.7041 95.9403 19.2429 98.4892 19.9552 100.992C28.4017 111.077 40.0433 117.969 52.9472 120.525C50.7641 115.749 48.8412 110.859 47.1872 105.875C36.6026 104.444 26.6199 100.114 18.3424 93.3633Z" fill="black"/>
<path d="M98.624 37.0101C98.666 43.2505 96.9828 49.3812 93.76 54.7253C99.3441 60.3507 104.428 66.4516 108.954 72.9589C114.752 63.4485 117.056 53.1189 115.622 43.0837C115.469 42.0341 115.27 40.9909 115.04 39.9605C109.796 36.1732 104.003 33.2119 97.8624 31.1797C98.3211 33.0909 98.5764 35.0452 98.624 37.0101Z" fill="black"/>
<path d="M25.6512 25.7404C29.9938 20.912 35.204 16.9415 41.0112 14.0348L40 11.8652C39.8656 11.9292 39.7376 12.006 39.6032 12.07C38.3232 12.6652 37.0944 13.318 35.8784 13.99L34.8608 14.5788C33.6917 15.27 32.5504 15.9996 31.4368 16.7676C31.2768 16.8764 31.104 16.9724 30.944 17.0812C30.6304 17.3052 30.304 17.5484 30.016 17.7788L29.2352 18.3612C28.7104 18.7644 28.1856 19.1676 27.6736 19.59L26.9696 20.1852C26.432 20.6396 25.8944 21.094 25.376 21.5676C23.8839 22.9267 22.4634 24.3622 21.12 25.8684C22.6048 25.798 24.1216 25.7532 25.6512 25.7404Z" fill="black"/>
<path d="M44.9216 12.269C48.4873 10.8035 52.202 9.73052 56 9.06902C58.1023 8.7129 60.2249 8.48846 62.3552 8.39701C62.8352 7.75702 63.3216 7.11702 63.8016 6.54102H63.3856H62.9056H62.7264C61.1946 6.57942 59.6736 6.67755 58.1632 6.83542C56.6528 6.99328 55.1594 7.20662 53.6832 7.47542L53.0432 7.59702C51.6864 7.85942 50.3488 8.17942 49.0176 8.54422L48 8.85782C46.72 9.23541 45.44 9.64502 44.16 10.1378L43.9424 10.2082L44.9216 12.269Z" fill="black"/>
<path d="M96.1344 26.156C102.011 27.7941 107.639 30.2204 112.864 33.3688C108.12 25.8977 101.723 19.6156 94.168 15.0063C86.6128 10.3971 78.1003 7.58378 69.2863 6.7832H69.2031C68.7359 7.3464 68.2559 7.916 67.7823 8.5048C80.9151 9.4712 91.4432 15.9992 96.1344 26.156Z" fill="black"/>
</svg>
