<svg width="128" height="128" viewBox="0 0 128 128" fill="none" xmlns="http://www.w3.org/2000/svg">
<path fill-rule="evenodd" clip-rule="evenodd" d="M64 5.10352C30.653 5.10352 3.612 32.1385 3.612 65.4915C3.612 92.1735 20.915 114.809 44.909 122.795C47.926 123.355 49.034 121.485 49.034 119.89C49.034 118.45 48.978 113.693 48.952 108.647C32.152 112.3 28.607 101.522 28.607 101.522C25.86 94.5415 21.902 92.6855 21.902 92.6855C16.422 88.9375 22.315 89.0155 22.315 89.0155C28.378 89.4405 31.572 95.2385 31.572 95.2385C36.958 104.469 45.699 101.801 49.145 100.259C49.687 96.3555 51.252 93.6905 52.979 92.1825C39.566 90.6575 25.465 85.4785 25.465 62.3395C25.465 55.7465 27.825 50.3595 31.688 46.1295C31.06 44.6095 28.993 38.4675 32.272 30.1495C32.272 30.1495 37.342 28.5265 48.882 36.3395C53.7 35.0005 58.867 34.3275 64 34.3045C69.13 34.3275 74.3 34.9985 79.127 36.3375C90.653 28.5245 95.717 30.1475 95.717 30.1475C99.004 38.4645 96.937 44.6075 96.31 46.1275C100.182 50.3575 102.525 55.7445 102.525 62.3375C102.525 85.5315 88.398 90.6375 74.951 92.1335C77.118 94.0075 79.048 97.6835 79.048 103.317C79.048 111.397 78.978 117.9 78.978 119.889C78.978 121.496 80.066 123.379 83.126 122.786C107.106 114.792 124.389 92.1635 124.389 65.4915C124.388 32.1405 97.35 5.10452 64 5.10452V5.10352Z" fill="#181616"/>
<path d="M26.484 91.8074C26.351 92.1074 25.879 92.1974 25.449 91.9924C25.009 91.7964 24.764 91.3874 24.906 91.0864C25.036 90.7764 25.509 90.6914 25.946 90.8984C26.386 91.0954 26.636 91.5084 26.483 91.8084L26.484 91.8074ZM28.93 94.5364C28.643 94.8034 28.08 94.6794 27.698 94.2564C27.302 93.8364 27.228 93.2734 27.521 93.0024C27.819 92.7364 28.365 92.8624 28.761 93.2824C29.155 93.7084 29.233 94.2664 28.931 94.5374L28.93 94.5364ZM31.312 98.0134C30.942 98.2714 30.336 98.0304 29.962 97.4934C29.592 96.9554 29.592 96.3104 29.972 96.0534C30.345 95.7954 30.942 96.0284 31.322 96.5604C31.69 97.1054 31.69 97.7504 31.312 98.0124V98.0134ZM34.573 101.374C34.243 101.739 33.537 101.641 33.021 101.144C32.494 100.657 32.347 99.9644 32.678 99.6004C33.014 99.2344 33.723 99.3364 34.242 99.8304C34.769 100.316 34.928 101.01 34.575 101.373L34.573 101.374ZM39.073 103.325C38.926 103.798 38.248 104.013 37.563 103.811C36.88 103.604 36.433 103.051 36.573 102.573C36.713 102.096 37.396 101.873 38.085 102.088C38.768 102.294 39.215 102.844 39.073 103.325ZM44.016 103.686C44.033 104.184 43.453 104.596 42.736 104.606C42.013 104.623 41.428 104.219 41.421 103.729C41.421 103.226 41.989 102.819 42.711 102.805C43.428 102.792 44.017 103.192 44.017 103.685L44.016 103.686ZM48.614 102.904C48.7 103.389 48.201 103.888 47.488 104.021C46.788 104.151 46.138 103.849 46.048 103.368C45.962 102.87 46.47 102.371 47.17 102.242C47.884 102.119 48.524 102.412 48.614 102.905V102.904Z" fill="#181616"/>
</svg>
