<svg width="148" height="148" viewBox="0 0 148 148" fill="none" xmlns="http://www.w3.org/2000/svg">
<path d="M74 135.667L15.4166 111.001V30.834L74 49.334V135.667Z" fill="black"/>
<path d="M74 135.667L132.583 111.001V30.834L74 49.334V135.667Z" fill="black"/>
<path d="M15.4166 30.834L73.9999 12.334L132.583 30.834L73.9999 49.334L15.4166 30.834Z" fill="black"/>
<path d="M112.659 90.0772L117.731 51.2796L123.333 49.334L115.816 100.943L110.306 103.215L103.899 69.5206L97.2422 108.605L91.4301 111.001L83.25 63.2583L89.3766 61.1308L94.8125 97.0856L101.395 56.956L106.341 55.2386L112.659 90.0772ZM51.9696 95.9016C51.9696 94.9026 51.8586 93.9714 51.6335 93.1112C51.4085 92.2509 50.9984 91.3845 50.4033 90.5181C49.8082 89.6517 48.9911 88.739 47.9551 87.777C46.9191 86.8181 45.5933 85.7297 43.9776 84.5179C42.214 83.2106 40.5952 81.8539 39.1152 80.451C37.6414 79.0511 36.3741 77.5804 35.3165 76.0387C34.262 74.5002 33.4357 72.866 32.8406 71.1362C32.2455 69.4065 31.9495 67.5565 31.9495 65.5832C31.9495 63.6314 32.2579 61.9387 32.8776 60.4987C33.4974 59.0557 34.373 57.9149 35.5046 57.0732C36.6393 56.2314 37.999 55.7227 39.5931 55.5562C41.1934 55.3866 42.9663 55.6086 44.9211 56.2191C47.0178 56.8758 48.914 57.8717 50.6006 59.2068C52.2934 60.545 53.7271 62.0959 54.9019 63.8565C56.0797 65.6232 56.9831 67.5257 57.6152 69.5668C58.2473 71.6111 58.5618 73.6738 58.5618 75.7551L51.9727 73.5752C51.9727 72.3727 51.8309 71.2195 51.5441 70.1157C51.2605 69.0149 50.8226 68.0005 50.2368 67.0724C49.651 66.1474 48.911 65.3365 48.0199 64.6427C47.1288 63.949 46.0805 63.4094 44.8687 63.0209C43.731 62.654 42.7474 62.506 41.918 62.5769C41.0916 62.6478 40.404 62.8945 39.8583 63.3231C39.3125 63.7486 38.9086 64.3344 38.6496 65.0775C38.3906 65.8175 38.2611 66.6685 38.2611 67.6305C38.2611 69.4404 38.9025 71.1609 40.1882 72.7982C41.477 74.4416 43.4535 76.2268 46.1236 78.1662C48.2265 79.6925 50.058 81.2187 51.6089 82.745C53.166 84.2774 54.464 85.8561 55.5031 87.4748C56.5422 89.0997 57.3161 90.7956 57.8249 92.5592C58.3275 94.326 58.5834 96.2037 58.5834 98.1925C58.5834 100.295 58.2627 102.071 57.6214 103.517C56.9831 104.963 56.0735 106.055 54.8957 106.795C53.721 107.535 52.3057 107.905 50.6469 107.914C48.9942 107.923 47.1596 107.55 45.1462 106.801C43.361 106.138 41.6096 105.164 39.8922 103.887C38.181 102.614 36.6516 101.091 35.3011 99.3117C33.9568 97.5388 32.8745 95.5501 32.0575 93.3455C31.2404 91.1502 30.8334 88.7667 30.8334 86.1983L37.1265 88.4276C37.1265 89.9662 37.33 91.3598 37.74 92.6117C38.1501 93.8635 38.7113 94.9704 39.4235 95.9324C40.1389 96.8975 40.9837 97.7177 41.9642 98.3991C42.9447 99.0805 44.0054 99.6324 45.1462 100.046C47.4001 100.866 49.1021 100.881 50.246 100.089C51.393 99.2963 51.9696 97.8965 51.9696 95.9016Z" fill="white"/>
</svg>
