<svg width="128" height="128" viewBox="0 0 128 128" fill="none" xmlns="http://www.w3.org/2000/svg">
<path d="M123.965 91.9017C116.719 73.6047 110.703 54.8437 103.781 36.4257C100.727 28.5857 97.734 20.6797 93.566 13.3437C91.91 10.7107 90.328 7.81572 87.613 6.12872C86.9475 5.71395 86.175 5.50327 85.391 5.52272C84.121 5.55072 82.855 6.11672 81.887 6.93772C78.242 9.82372 76.082 14.0197 73.66 17.8867C69.383 25.0587 64.871 32.5737 57.719 37.2337C54.359 39.6047 49.957 39.8637 46.719 42.4057C42.289 45.7457 39.277 50.4837 35.645 54.5897C34.816 55.5777 33.535 55.9727 32.418 56.5077C21.578 60.9297 10.738 65.3357 0 69.9797C9.09 77.0117 18.777 83.2697 28.05 90.0587C30.594 89.5547 33.148 88.5117 35.77 88.9767C39.93 90.2767 42.367 94.2617 44.273 97.9067C48.148 105.847 50.949 114.23 54.086 122.477C59.332 122.102 64.055 119.398 68.113 116.219C75.922 109.895 81.871 101.719 88.418 94.1717C91.558 90.8717 94.758 86.9417 99.468 86.0227C104.23 84.8707 109.332 86.5777 112.863 89.8587C117.82 94.2887 122.207 99.4097 128 102.801C127.223 98.9647 125.355 95.5227 123.965 91.9017ZM42.96 79.0117C38.39 81.7147 33.534 83.9417 28.784 86.3007C21.327 81.3047 14.061 76.0107 6.734 70.8357C16.612 66.5077 26.644 62.4877 36.651 58.4487C41.397 62.1517 46.288 65.6717 51.034 69.3747C48.804 72.9377 46.12 76.2457 42.96 79.0117ZM53.128 66.5977C48.414 63.0577 43.64 59.6087 39 55.9767C41.977 51.9217 45.238 47.9997 49.14 44.8047C51.727 43.1477 54.883 42.6877 57.566 41.1947C63.934 38.0147 68.277 32.1837 72.426 26.6127C67.109 40.4177 61.434 54.2767 53.129 66.5977H53.128Z" fill="black"/>
</svg>
