<svg width="133" height="134" viewBox="0 0 133 134" fill="none" xmlns="http://www.w3.org/2000/svg">
<g filter="url(#filter0_d)">
<path d="M4 1V126H129V1H4ZM70.119 107.513C68.274 111.262 64.752 113.725 60.671 114.914C54.4 116.354 48.402 115.533 43.94 112.855C40.954 111.023 38.622 108.203 37.039 104.954L46.559 99.124C46.642 99.159 46.892 99.611 47.226 100.195C48.44 102.229 49.487 103.669 51.545 104.68C53.567 105.37 58.006 105.811 59.72 102.253C60.767 100.443 60.434 94.625 60.434 88.188C60.433 78.073 60.48 68 60.48 58H72.189C72.189 69 72.249 79.418 72.189 90.152C72.214 96.732 72.785 102.598 70.119 107.513ZM118.693 104.205C114.623 118.127 91.931 118.579 82.863 109.381C80.947 107.216 79.746 106.085 78.603 103.586C83.422 100.814 83.422 100.814 88.111 98.101C90.658 102.016 93.013 104.169 97.25 105.05C102.998 105.752 108.781 103.777 107.484 97.672C106.151 92.686 95.714 91.473 88.611 86.141C81.4 81.298 79.71 69.53 85.636 62.806C87.611 60.319 90.979 58.463 94.513 57.571L98.201 57.094C105.282 56.951 109.708 58.821 112.957 62.449C113.861 63.365 114.599 64.353 115.979 66.494C112.207 68.898 112.219 68.875 106.816 72.373C105.662 69.887 103.747 68.327 101.723 67.649C98.581 66.697 94.619 67.732 93.797 71.052C93.512 72.075 93.571 73.027 94.024 74.717C95.297 77.62 99.569 78.882 103.401 80.643C114.432 85.117 118.157 89.914 119.073 95.624C119.955 100.54 118.86 103.729 118.693 104.205Z" fill="black"/>
</g>
<defs>
<filter id="filter0_d" x="-2" y="0" width="136" height="136" filterUnits="userSpaceOnUse" color-interpolation-filters="sRGB">
<feFlood flood-opacity="0" result="BackgroundImageFix"/>
<feColorMatrix in="SourceAlpha" type="matrix" values="0 0 0 0 0 0 0 0 0 0 0 0 0 0 0 0 0 0 127 0"/>
<feOffset dy="4"/>
<feGaussianBlur stdDeviation="2"/>
<feColorMatrix type="matrix" values="0 0 0 0 0 0 0 0 0 0 0 0 0 0 0 0 0 0 0.25 0"/>
<feBlend mode="normal" in2="BackgroundImageFix" result="effect1_dropShadow"/>
<feBlend mode="normal" in="SourceGraphic" in2="effect1_dropShadow" result="shape"/>
</filter>
</defs>
</svg>
