<svg width="104" height="147" viewBox="0 0 104 147" fill="none" xmlns="http://www.w3.org/2000/svg">
<path d="M51.9366 146.629L9.61618 134.852L0.185059 28.8164H103.815L94.374 134.836L51.9366 146.629V146.629Z" fill="black"/>
<path d="M86.2916 128.085L94.359 37.4863H52V137.615L86.2916 128.085V128.085Z" fill="black"/>
<path d="M21.8055 76.8122L22.9681 89.817H52V76.8122H21.8055ZM19.469 50.4902L20.6482 63.4951H52V50.4902H19.469V50.4902ZM52 110.587L51.9431 110.602L37.4948 106.691L36.5711 96.3196H23.5478L25.3652 116.739L51.9403 124.134L52 124.118V110.587Z" fill="white"/>
<path d="M24.574 0H40.2864V6.5869H31.1449V13.1738H40.2872V19.7603H24.574V0ZM43.4293 0H59.1422V5.72771H50.0003V6.87317H59.1422V20.047H43.4297V14.0322H52.5716V12.8867H43.4289V0H43.4293ZM62.2851 0H77.9979V5.72771H68.856V6.87317H77.9979V20.047H62.2851V14.0322H71.427V12.8867H62.2855V0H62.2851Z" fill="black"/>
<path d="M82.1117 76.8122L84.4535 50.4902H51.9554V63.495H70.2359L69.0554 76.8122H51.9554V89.817H67.9306L66.4244 106.683L51.955 110.598V124.128L78.5512 116.739L78.7462 114.542L81.7952 80.3044L82.1117 76.8122V76.8122Z" fill="white"/>
</svg>
