<svg width="104" height="147" viewBox="0 0 104 147" fill="none" xmlns="http://www.w3.org/2000/svg">
<path d="M9.46447 135.185L0 28.8906H104L94.5251 135.168L51.9362 146.991L9.46447 135.185Z" fill="black"/>
<path d="M52 137.954L86.4136 128.401L94.5109 37.582H52V137.954Z" fill="black"/>
<path d="M51.9999 77.0074H34.7718L33.5817 63.6578H51.9999V50.6211H19.3524L19.6644 54.1186L22.8643 90.0437H51.9999V77.0074ZM51.9999 110.864L51.9427 110.88L37.4427 106.959L36.5157 96.5625H23.4462L25.2705 117.032L51.9403 124.445L51.9999 124.428V110.864Z" fill="white"/>
<path d="M9.67627 0.00585938H16.2926V6.5512H22.3449V0.00585938H28.9614V19.827H22.3449V13.1898H16.2926V19.827H9.67675L9.67627 0.00585938ZM37.6627 6.57913H31.8382V0.00585938H50.1074V6.57913H44.2801V19.827H37.6629V6.57913H37.6627ZM53.0065 0.00585938H59.9059L64.1498 6.97058L68.3897 0.00585938H75.2915V19.827H68.7012V10.0023L64.1491 17.0499H64.0354L59.4802 10.0023V19.827H53.0062V0.00585938H53.0065ZM78.5838 0.00585938H85.202V13.2755H94.5072V19.827H78.5838V0.00585938Z" fill="black"/>
<path d="M51.9551 77.0074V90.0437H67.9876L66.4761 106.951L51.9551 110.875V124.438L78.6462 117.032L78.8414 114.829L81.9014 80.5083L82.219 77.0074H78.7109H51.9551ZM51.9551 50.6211V63.6578H83.4039L83.6647 60.7274L84.2579 54.1186L84.5695 50.6211H51.9551Z" fill="white"/>
</svg>
