<svg width="128" height="128" viewBox="0 0 128 128" fill="none" xmlns="http://www.w3.org/2000/svg">
<path d="M47.617 98.1209C28.425 103.483 59.294 114.56 83.732 104.09C79.729 102.534 76.858 100.739 76.858 100.739C65.961 102.799 60.906 102.961 51.014 101.831C42.85 100.896 47.617 98.1209 47.617 98.1209ZM80.806 87.6609C66.362 90.4399 58.019 90.3509 47.452 89.2609C39.281 88.4159 44.63 84.4559 44.63 84.4559C23.493 91.4719 56.397 99.4329 85.939 90.7919C82.799 89.6859 80.806 87.6609 80.806 87.6609ZM92.125 27.0859C92.126 27.0859 49.394 37.7549 69.802 61.2729C75.826 68.2079 68.222 74.4429 68.222 74.4429C68.222 74.4429 83.511 66.5519 76.491 56.6659C69.932 47.4509 64.904 42.8729 92.125 27.0859ZM102.123 108.23C102.123 108.23 105.652 111.14 98.235 113.389C84.133 117.661 39.529 118.949 27.14 113.56C22.69 111.622 31.039 108.935 33.666 108.368C36.405 107.775 37.969 107.883 37.969 107.883C33.017 104.396 5.95599 114.733 24.227 117.698C74.048 125.774 115.044 114.061 102.123 108.23ZM85 77.8969C87.395 76.2629 90.703 74.8439 90.703 74.8439C90.703 74.8439 81.279 76.5289 71.89 77.3179C60.396 78.2819 48.067 78.4719 41.878 77.6439C27.226 75.6849 49.911 70.2959 49.911 70.2959C49.911 70.2959 41.099 69.6999 30.267 74.9399C17.455 81.1349 61.958 83.9589 85 77.8969ZM90.609 93.0419C90.501 93.3319 90.141 93.6579 90.141 93.6579C121.414 85.4369 109.916 64.6789 94.963 69.9329C93.651 70.3969 92.963 71.4759 92.963 71.4759C92.963 71.4759 93.792 71.1419 95.641 70.7559C103.2 69.1809 114.03 80.8749 90.609 93.0419ZM64.181 70.0699C59.567 59.6409 43.921 50.5169 64.188 34.5109C89.459 14.5639 76.492 1.58789 76.492 1.58789C81.722 22.1959 58.041 28.4209 49.493 41.2549C43.672 49.9999 52.35 59.3969 64.181 70.0699ZM91.455 121.818C72.268 125.43 48.601 125.009 34.568 122.692C34.568 122.692 37.442 125.072 52.214 126.023C74.69 127.46 109.214 125.223 110.03 114.587C110.031 114.587 108.46 118.619 91.455 121.818Z" fill="black"/>
</svg>
