<svg width="128" height="128" viewBox="0 0 128 128" fill="none" xmlns="http://www.w3.org/2000/svg">
<g clip-path="url(#clip0)">
<path d="M65.6 75.3C71.896 75.3 77 70.196 77 63.9C77 57.604 71.896 52.5 65.6 52.5C59.3039 52.5 54.2 57.604 54.2 63.9C54.2 70.196 59.3039 75.3 65.6 75.3Z" fill="black"/>
<path d="M108.9 45.1C106.7 44.3 104.4 43.5 102 42.8C102.6 40.4 103.1 38 103.5 35.7C105.6 22.5 103.3 13.2 96.9 9.6C95 8.5 92.9 8 90.5 8C83.5 8 74.6 13.2 65.6 21.9C56.6 13.2 47.7 8 40.7 8C38.3 8 36.2 8.5 34.3 9.6C27.9 13.3 25.6 22.6 27.7 35.7C28.1 38 28.6 40.4 29.2 42.8C26.8 43.5 24.5 44.2 22.3 45.1C9.8 49.9 3 56.5 3 63.9C3 71.3 9.9 77.9 22.3 82.7C24.5 83.5 26.8 84.3 29.2 85C28.6 87.4 28.1 89.8 27.7 92.1C25.6 105.3 27.9 114.6 34.3 118.2C36.2 119.3 38.3 119.8 40.7 119.8C47.8 119.8 56.7 114.6 65.6 105.9C74.6 114.6 83.5 119.8 90.5 119.8C92.9 119.8 95 119.3 96.9 118.2C103.3 114.5 105.6 105.2 103.5 92.1C103.1 89.8 102.6 87.4 102 85C104.4 84.3 106.7 83.6 108.9 82.7C121.4 77.9 128.2 71.3 128.2 63.9C128.2 56.5 121.4 49.9 108.9 45.1ZM94.1 14.6C98.2 17 99.6 24.4 97.9 34.9C97.6 37 97.1 39.2 96.5 41.5C91.3 40.3 85.8 39.5 80 39C76.6 34.2 73.1 29.9 69.6 26C77 18.7 84.5 13.7 90.6 13.7C91.9 13.7 93.1 14 94.1 14.6ZM82.9 73.9C81.1 77.1 79 80.3 76.8 83.5C73.1 83.8 69.4 83.9 65.6 83.9C61.7 83.9 58 83.8 54.4 83.5C52.2 80.3 50.2 77.1 48.4 73.9C46.5 70.6 44.7 67.2 43.1 63.9C44.7 60.6 46.5 57.2 48.4 53.9C50.2 50.7 52.3 47.5 54.5 44.3C58.2 44 61.9 43.9 65.7 43.9C69.6 43.9 73.3 44 76.9 44.3C79.1 47.5 81.1 50.7 82.9 53.9C84.8 57.2 86.6 60.6 88.2 63.9C86.5 67.2 84.8 70.5 82.9 73.9ZM91.2 70.6C92.7 74.1 93.9 77.5 95 80.9C91.6 81.7 88 82.3 84.2 82.8C85.4 80.9 86.7 78.9 87.8 76.8C89 74.7 90.1 72.6 91.2 70.6ZM65.6 97.7C63.2 95.1 60.9 92.3 58.7 89.4C61 89.5 63.3 89.6 65.6 89.6C67.9 89.6 70.2 89.5 72.5 89.4C70.3 92.3 68 95.1 65.6 97.7ZM47 82.7C43.2 82.2 39.6 81.6 36.2 80.8C37.3 77.5 38.5 74 40 70.5C41.1 72.5 42.2 74.6 43.4 76.6C44.6 78.8 45.8 80.7 47 82.7ZM40 57.2C38.5 53.7 37.3 50.3 36.2 46.9C39.6 46.1 43.2 45.5 47 45C45.8 46.9 44.5 48.9 43.4 51C42.2 53.1 41.1 55.2 40 57.2ZM65.6 30.1C68 32.7 70.3 35.5 72.5 38.4C70.2 38.3 67.9 38.2 65.6 38.2C63.3 38.2 61 38.3 58.7 38.4C60.9 35.5 63.2 32.7 65.6 30.1ZM87.8 51.1L84.2 45.1C88 45.6 91.6 46.2 95 47C93.9 50.3 92.7 53.8 91.2 57.3C90.1 55.2 89 53.1 87.8 51.1ZM33.3 34.9C31.6 24.4 33 17 37.1 14.6C38.1 14 39.3 13.7 40.6 13.7C46.6 13.7 54.1 18.6 61.6 26C58.1 29.8 54.6 34.2 51.2 39C45.4 39.5 39.9 40.4 34.7 41.5C34.1 39.2 33.7 37 33.3 34.9ZM8.6 63.9C8.6 59.2 14.3 54.2 24.3 50.5C26.3 49.7 28.5 49 30.7 48.4C32.3 53.4 34.3 58.7 36.7 64C34.3 69.3 32.2 74.5 30.7 79.5C16.9 75.5 8.6 69.5 8.6 63.9ZM37.1 113.2C33 110.8 31.6 103.4 33.3 92.9C33.6 90.8 34.1 88.6 34.7 86.3C39.9 87.5 45.4 88.3 51.2 88.8C54.6 93.6 58.1 97.9 61.6 101.8C54.2 109.1 46.7 114.1 40.6 114.1C39.3 114.1 38.1 113.8 37.1 113.2ZM97.9 92.9C99.6 103.4 98.2 110.8 94.1 113.2C93.1 113.8 91.9 114.1 90.6 114.1C84.6 114.1 77.1 109.2 69.6 101.8C73.1 98 76.6 93.6 80 88.8C85.8 88.3 91.3 87.4 96.5 86.3C97.1 88.6 97.5 90.8 97.9 92.9ZM106.9 77.3C104.9 78.1 102.7 78.8 100.5 79.4C98.9 74.4 96.9 69.1 94.5 63.8C96.9 58.5 99 53.3 100.5 48.3C114.3 52.3 122.6 58.3 122.6 63.9C122.6 68.6 116.8 73.6 106.9 77.3Z" fill="black"/>
</g>
<defs>
<clipPath id="clip0">
<rect width="128" height="128" fill="white"/>
</clipPath>
</defs>
</svg>
