<svg width="128" height="128" viewBox="0 0 128 128" fill="none" xmlns="http://www.w3.org/2000/svg">
<path d="M64 14.6475C28.654 14.6475 0 33.8375 0 57.5105C0 78.2745 22.046 95.5885 51.316 99.5295V86.6985C35.766 81.8085 25.15 72.0055 25.15 60.7075C25.15 44.5245 46.929 31.4045 73.796 31.4045C100.662 31.4045 120.489 40.3795 120.489 60.7075C120.489 71.1935 115.216 78.6575 106.423 83.4275C107.627 84.3355 108.643 85.4995 109.327 86.8465L109.715 87.5015C121.025 79.7715 128 69.1885 128 57.5095C128 33.8375 99.346 14.6465 64 14.6465V14.6475ZM84.1 89.5275C81.488 89.7845 78.778 89.9375 75.986 89.9895L75.988 99.6195C80.2005 99.0896 84.3693 98.2567 88.462 97.1275L87.961 96.1865C87.281 94.9185 86.614 93.6435 85.928 92.3795C85.3582 91.4044 84.7483 90.4532 84.1 89.5285V89.5275Z" fill="black"/>
<path fill-rule="evenodd" clip-rule="evenodd" d="M97.469 81.0367C97.469 81.0367 101.343 82.2057 103.593 83.3437C104.373 83.7397 105.725 84.5277 106.699 85.5637C107.271 86.1694 107.75 86.8569 108.119 87.6037L123.385 113.344L98.711 113.354L87.174 91.6877C87.174 91.6877 84.811 87.6277 83.357 86.4507C82.144 85.4687 81.627 85.1197 80.428 85.1197H74.566L74.57 113.339L52.736 113.348V41.2637H96.581C96.581 41.2637 116.551 41.6237 116.551 60.6227C116.551 79.6217 97.47 81.0357 97.47 81.0357L97.469 81.0367ZM87.972 56.8997L74.754 56.8907L74.748 69.1477L87.972 69.1437C87.972 69.1437 94.096 69.1247 94.096 62.9087C94.096 56.5687 87.972 56.8987 87.972 56.8987V56.8997Z" fill="black"/>
</svg>
