<svg width="128" height="128" viewBox="0 0 128 128" fill="none" xmlns="http://www.w3.org/2000/svg">
<path fill-rule="evenodd" clip-rule="evenodd" d="M0.299988 66.4992V56.8992C0.499988 56.7992 0.499988 56.5992 0.499988 56.3992C3.49999 43.2992 11.7 35.3992 24.7 32.2992C25.8 31.9992 27 32.0992 28.1 31.6992H34.5C34.6 31.8992 34.9 31.7992 35.1 31.7992C41.5 32.4992 47.3 34.7992 52.4 38.7992C56.8 42.0992 60.2 46.2992 63.3 50.7992C63.7 51.3992 63.9 51.3992 64.3 50.7992C66.1 48.1992 68 45.6992 70.2 43.3992C75.5 37.6992 81.9 33.6992 89.7 32.2992C90.8 31.9992 92.1 32.0992 93.2 31.6992H99.4C99.5 31.8992 99.7 31.7992 99.9 31.7992C101.8 31.9992 103.6 32.3992 105.4 32.8992C118.8 36.7992 128.3 49.0992 127.5 62.9992C126.9 74.6992 121 83.0992 110.7 88.3992C105.6 91.1992 100 91.8992 94.2 91.7992C86.6 91.6992 80 89.0992 74.3 84.0992C70.3 80.5992 67.2 76.3992 64.3 71.9992C63.9 71.3992 63.7 71.4992 63.3 72.0992C61.5 74.7992 59.6 77.4992 57.4 80.0992C53.5 84.4992 49 88.0992 43.4 89.9992C36.5 92.3992 29.5 92.4992 22.5 90.5992C12.4 87.6992 5.49999 81.2992 1.69999 71.4992C1.09999 69.8992 0.799988 68.0992 0.299988 66.4992ZM32.1 81.1992C37.8 81.3992 42.7 79.4992 46.9 75.5992C51.2 71.5992 54.3 66.5992 57.4 61.6992C57.5 61.3992 57.5 61.1992 57.3 60.8992C54.7 56.7992 52 52.6992 48.4 49.2992C41.5 42.6992 33.4 40.4992 24.3 43.3992C16.8 45.8992 12 51.1992 10.9 59.1992C9.79999 66.6992 12.7 72.6992 18.7 77.1992C22.7 80.0992 27.2 81.2992 32.1 81.1992ZM95.5 81.1992C97.7 81.1992 99.9 81.0992 102 80.4992C109.9 78.0992 115.1 73.1992 116.6 64.9992C118.1 56.8992 115 50.3992 108.2 45.7992C100.7 40.5992 89.8 41.0992 82.2 46.7992C77.1 50.5992 73.7 55.6992 70.3 60.9992C70.1 61.2992 70.2 61.4992 70.3 61.7992C73 66.0992 75.7 70.3992 79.2 74.0992C83.6 78.7992 88.9 81.4992 95.5 81.1992Z" fill="black"/>
<path fill-rule="evenodd" clip-rule="evenodd" d="M32 58.4991C35.2 58.4991 38.5 58.599 41.7 58.4991C42.5 58.4991 42.6 58.6991 42.6 59.4991C42.5 60.3991 42.5 61.299 42.6 62.1991C42.7 62.9991 42.5 63.1991 41.6 63.1991H28.8C26.6 63.1991 24.4 63.0991 22.2 63.1991C21.5 63.1991 21.3 62.9991 21.3 62.1991C21.4 61.299 21.4 60.3991 21.3 59.3991C21.3 58.6991 21.5 58.4991 22.2 58.4991C25.4 58.599 28.7 58.4991 32 58.4991ZM95 52.0991C95.8 52.0991 96.6 52.1991 97.3 52.0991C97.8 52.0991 98 52.2991 98 52.7991C97.9 54.1991 98 55.599 97.9 56.9991C97.9 57.6991 98.1 57.8991 98.8 57.8991C100.1 57.7991 101.5 57.899 102.9 57.799C103.5 57.799 103.7 57.899 103.7 58.599V63.1991C103.7 63.6991 103.5 63.8991 103 63.8991C101.6 63.7991 100.2 63.899 98.7 63.799C98.1 63.799 97.9 63.9991 97.9 64.599C98 65.9991 97.9 67.3991 98 68.7991C98 69.3991 97.8 69.699 97.2 69.699C95.7 69.599 94.2 69.599 92.7 69.699C92.1 69.699 91.9 69.4991 91.9 68.8991C92 67.3991 91.9 65.9991 92 64.4991C92 63.9991 91.8 63.799 91.3 63.799C89.9 63.899 88.5 63.7991 87.1 63.8991C86.3 63.8991 86.2 63.599 86.2 62.9991C86.2 61.599 86.3 60.1991 86.2 58.799C86.1 57.9991 86.5 57.799 87.2 57.799C88.6 57.899 89.9 57.7991 91.3 57.8991C91.8 57.8991 92 57.6991 92 57.1991C91.9 55.799 92 54.2991 91.9 52.8991C91.9 52.2991 92.1 52.0991 92.7 52.0991C93.5 52.1991 94.2 52.0991 95 52.0991ZM124.852 24.4761C124.719 24.6751 124.672 24.7411 124.629 24.8081C124.387 25.1711 124.574 25.9051 123.965 25.8941C123.425 25.8821 123.562 25.2101 123.371 24.8431C123.321 24.7451 123.261 24.6551 123.094 24.3821C123.094 24.8861 123.102 25.1711 123.094 25.4601C123.086 25.6551 123.129 25.9011 122.82 25.9171C122.508 25.9331 122.527 25.6831 122.523 25.4871C122.516 24.8071 122.516 24.1321 122.52 23.4561C122.52 23.2261 122.484 22.9601 122.844 22.9521C123.114 22.9481 123.348 22.9371 123.461 23.2881C123.605 23.7181 123.656 24.1981 123.988 24.6121C124.305 24.2101 124.359 23.7451 124.48 23.3191C124.582 22.9721 124.797 22.9491 125.078 22.9491C125.434 22.9521 125.418 23.2021 125.422 23.4371C125.426 24.1171 125.426 24.7921 125.418 25.4721C125.414 25.6631 125.441 25.9171 125.137 25.9211C124.832 25.9211 124.855 25.6791 124.852 25.4791C124.844 25.1901 124.852 24.9051 124.852 24.4761ZM121.14 22.9441C121.227 22.9441 121.32 22.9291 121.402 22.9441C121.727 23.0071 122.23 22.7571 122.336 23.1441C122.48 23.6871 121.91 23.4141 121.668 23.5301C121.426 23.6471 121.473 23.8621 121.468 24.0581C121.457 24.5261 121.461 24.9951 121.461 25.4641C121.461 25.7221 121.411 25.9371 121.078 25.9241C120.773 25.9141 120.785 25.6901 120.785 25.4871C120.776 25.0484 120.775 24.6097 120.781 24.1711C120.793 23.7961 120.797 23.4441 120.258 23.4951C120.07 23.5111 119.906 23.4561 119.906 23.2181C119.906 22.8901 120.16 22.9561 120.348 22.9481C120.613 22.9361 120.875 22.9441 121.141 22.9441H121.14Z" fill="black"/>
</svg>
