<svg width="128" height="128" viewBox="0 0 128 128" fill="none" xmlns="http://www.w3.org/2000/svg">
<path d="M3.65603 45.0438C3.65603 45.0438 0.629031 42.8528 4.26603 39.9308L12.734 32.3368C12.734 32.3368 15.16 29.7778 17.723 32.0088L95.898 91.3368V119.787C95.898 119.787 95.859 124.255 90.141 123.763L3.65603 45.0438Z" fill="black"/>
<path d="M23.809 63.3799L3.65596 81.7429C3.65596 81.7429 1.58596 83.2859 3.65596 86.0479L13.012 94.5749C13.012 94.5749 15.234 96.9699 18.52 94.2469L39.879 78.0089L23.809 63.3799ZM59.184 63.5319L96.137 35.2469L95.898 6.94991C95.898 6.94991 94.32 0.773911 89.055 3.99091L39.879 48.8519L59.184 63.5319Z" fill="black"/>
<path d="M90.1401 123.797C92.2851 126 94.8871 125.277 94.8871 125.277L123.684 111.055C127.371 108.535 126.855 105.41 126.855 105.41V20.4649C126.855 16.7299 123.043 15.4409 123.043 15.4409L98.0821 3.37994C92.6291 0.000936508 89.0551 3.98994 89.0551 3.98994C89.0551 3.98994 93.6481 0.672936 95.8981 6.94994V119.267C95.8981 120.04 95.7341 120.797 95.4061 121.481C94.7501 122.813 93.3201 124.051 89.9021 123.532L90.1401 123.797Z" fill="black"/>
</svg>
