<svg width="63" height="63" viewBox="0 0 63 63" fill="none" xmlns="http://www.w3.org/2000/svg">
<g clip-path="url(#clip0)">
<path d="M19.8192 57.0956C43.5869 57.0956 56.5905 37.3995 56.5905 20.3243C56.5905 19.7706 56.5782 19.2046 56.5536 18.6509C59.0832 16.8215 61.2662 14.5556 63 11.9596C60.6441 13.0077 58.1428 13.6923 55.5815 13.9899C58.2784 12.3733 60.2976 9.83379 61.265 6.84206C58.7279 8.34564 55.9534 9.40628 53.0603 9.97853C51.111 7.90727 48.5336 6.53585 45.7267 6.07631C42.9198 5.61676 40.0396 6.09468 37.5316 7.43618C35.0235 8.77767 33.0272 10.908 31.8513 13.4979C30.6755 16.0877 30.3855 18.9928 31.0263 21.764C25.889 21.5062 20.8633 20.1716 16.275 17.8469C11.6866 15.5222 7.63794 12.2592 4.39154 8.2694C2.74155 11.1142 2.23665 14.4805 2.97946 17.6842C3.72226 20.8878 5.65704 23.6885 8.39057 25.5169C6.3384 25.4517 4.33119 24.8992 2.53477 23.905V24.0649C2.53293 27.0503 3.56501 29.9442 5.45556 32.2547C7.34612 34.5652 9.97847 36.1496 12.9052 36.7388C11.0041 37.2589 9.00895 37.3347 7.07397 36.9602C7.89982 39.5277 9.50663 41.7733 11.6701 43.3835C13.8337 44.9938 16.4459 45.8885 19.1424 45.9427C14.5646 49.5386 8.90971 51.489 3.08848 51.4798C2.05613 51.4782 1.0248 51.4149 0 51.2903C5.91375 55.0843 12.793 57.0993 19.8192 57.0956Z" fill="white"/>
</g>
<defs>
<clipPath id="clip0">
<rect width="63" height="63" fill="white"/>
</clipPath>
</defs>
</svg>
