<svg width="63" height="63" viewBox="0 0 63 63" fill="none" xmlns="http://www.w3.org/2000/svg">
<path d="M31.5 5.67246C39.9164 5.67246 40.9131 5.70937 44.2231 5.85703C47.2992 5.99238 48.9604 6.50918 50.0678 6.93984C51.532 7.50586 52.5902 8.19492 53.6854 9.29004C54.7928 10.3975 55.4695 11.4434 56.0356 12.9076C56.4662 14.015 56.983 15.6885 57.1184 18.7523C57.266 22.0746 57.3029 23.0713 57.3029 31.4754C57.3029 39.8918 57.266 40.8885 57.1184 44.1984C56.983 47.2746 56.4662 48.9357 56.0356 50.0432C55.4695 51.5074 54.7805 52.5656 53.6854 53.6607C52.5779 54.7682 51.532 55.4449 50.0678 56.0109C48.9604 56.4416 47.2869 56.9584 44.2231 57.0938C40.9008 57.2414 39.9041 57.2783 31.5 57.2783C23.0836 57.2783 22.0869 57.2414 18.777 57.0938C15.7008 56.9584 14.0397 56.4416 12.9322 56.0109C11.468 55.4449 10.4098 54.7559 9.31465 53.6607C8.20723 52.5533 7.53047 51.5074 6.96445 50.0432C6.53379 48.9357 6.01699 47.2623 5.88164 44.1984C5.73399 40.8762 5.69707 39.8795 5.69707 31.4754C5.69707 23.059 5.73399 22.0623 5.88164 18.7523C6.01699 15.6762 6.53379 14.015 6.96445 12.9076C7.53047 11.4434 8.21953 10.3852 9.31465 9.29004C10.4221 8.18262 11.468 7.50586 12.9322 6.93984C14.0397 6.50918 15.7131 5.99238 18.777 5.85703C22.0869 5.70937 23.0836 5.67246 31.5 5.67246ZM31.5 0C22.9482 0 21.8777 0.0369141 18.5186 0.18457C15.1717 0.332227 12.8707 0.873633 10.8773 1.64883C8.79785 2.46094 7.03828 3.53145 5.29102 5.29102C3.53145 7.03828 2.46094 8.79785 1.64883 10.865C0.873633 12.8707 0.332227 15.1594 0.18457 18.5062C0.0369141 21.8777 0 22.9482 0 31.5C0 40.0518 0.0369141 41.1223 0.18457 44.4814C0.332227 47.8283 0.873633 50.1293 1.64883 52.1227C2.46094 54.2021 3.53145 55.9617 5.29102 57.709C7.03828 59.4562 8.79785 60.5391 10.865 61.3389C12.8707 62.1141 15.1594 62.6555 18.5063 62.8031C21.8654 62.9508 22.9359 62.9877 31.4877 62.9877C40.0395 62.9877 41.11 62.9508 44.4691 62.8031C47.816 62.6555 50.117 62.1141 52.1104 61.3389C54.1775 60.5391 55.9371 59.4562 57.6844 57.709C59.4316 55.9617 60.5145 54.2022 61.3143 52.135C62.0895 50.1293 62.6309 47.8406 62.7785 44.4938C62.9262 41.1346 62.9631 40.0641 62.9631 31.5123C62.9631 22.9605 62.9262 21.89 62.7785 18.5309C62.6309 15.184 62.0895 12.883 61.3143 10.8896C60.5391 8.79785 59.4686 7.03828 57.709 5.29102C55.9617 3.54375 54.2022 2.46094 52.135 1.66113C50.1293 0.885937 47.8406 0.344531 44.4938 0.196875C41.1223 0.0369141 40.0518 0 31.5 0Z" fill="white"/>
<path d="M31.5 15.3203C22.5668 15.3203 15.3193 22.5678 15.3193 31.501C15.3193 40.4342 22.5668 47.6816 31.5 47.6816C40.4332 47.6816 47.6807 40.4342 47.6807 31.501C47.6807 22.5678 40.4332 15.3203 31.5 15.3203ZM31.5 41.9969C25.7045 41.9969 21.0041 37.2965 21.0041 31.501C21.0041 25.7055 25.7045 21.0051 31.5 21.0051C37.2955 21.0051 41.9959 25.7055 41.9959 31.501C41.9959 37.2965 37.2955 41.9969 31.5 41.9969Z" fill="white"/>
<path d="M52.098 14.6799C52.098 16.7717 50.4 18.4574 48.3205 18.4574C46.2287 18.4574 44.543 16.7594 44.543 14.6799C44.543 12.5881 46.241 10.9023 48.3205 10.9023C50.4 10.9023 52.098 12.6004 52.098 14.6799Z" fill="white"/>
</svg>
