<svg width="63" height="63" viewBox="0 0 63 63" fill="none" xmlns="http://www.w3.org/2000/svg">
<path d="M58.3365 0H4.65117C2.07949 0 0 2.03027 0 4.54043V58.4473C0 60.9574 2.07949 63 4.65117 63H58.3365C60.9082 63 63 60.9574 63 58.4596V4.54043C63 2.03027 60.9082 0 58.3365 0ZM18.6908 53.6853H9.33926V23.6127H18.6908V53.6853ZM14.015 19.5152C11.0127 19.5152 8.58867 17.0912 8.58867 14.1012C8.58867 11.1111 11.0127 8.68711 14.015 8.68711C17.0051 8.68711 19.4291 11.1111 19.4291 14.1012C19.4291 17.0789 17.0051 19.5152 14.015 19.5152ZM53.6853 53.6853H44.3461V39.0674C44.3461 35.5852 44.2846 31.0939 39.4857 31.0939C34.6254 31.0939 33.8871 34.8961 33.8871 38.8213V53.6853H24.5602V23.6127H33.518V27.7225H33.641C34.8838 25.36 37.9354 22.8621 42.4758 22.8621C51.9381 22.8621 53.6853 29.0883 53.6853 37.1848V53.6853Z" fill="white"/>
</svg>
