<svg width="63" height="63" viewBox="0 0 63 63" fill="none" xmlns="http://www.w3.org/2000/svg">
<path fill-rule="evenodd" clip-rule="evenodd" d="M63 31.5C63 48.897 48.897 63 31.5 63C14.103 63 0 48.897 0 31.5C0 14.103 14.103 0 31.5 0C48.897 0 63 14.103 63 31.5ZM32.6288 23.2551C29.565 24.5294 23.4416 27.167 14.2587 31.1679C12.7676 31.7608 11.9864 32.3409 11.9153 32.9082C11.7951 33.8668 12.9956 34.2443 14.6304 34.7583C14.8527 34.8282 15.0831 34.9007 15.3193 34.9775C16.9277 35.5003 19.0912 36.1119 20.2159 36.1362C21.2361 36.1583 22.3748 35.7377 23.6319 34.8744C32.2118 29.0828 36.6408 26.1554 36.9188 26.0923C37.115 26.0478 37.3868 25.9918 37.571 26.1555C37.7552 26.3192 37.7371 26.6292 37.7176 26.7124C37.5987 27.2194 32.8863 31.6004 30.4477 33.8676C29.6875 34.5743 29.1482 35.0757 29.038 35.1902C28.791 35.4467 28.5393 35.6893 28.2974 35.9225C26.8033 37.3629 25.6828 38.443 28.3595 40.207C29.6458 41.0546 30.6751 41.7556 31.702 42.4549C32.8234 43.2186 33.942 43.9803 35.3892 44.929C35.758 45.1707 36.1101 45.4217 36.4531 45.6663C37.7582 46.5967 38.9307 47.4326 40.3793 47.2993C41.221 47.2218 42.0905 46.4304 42.532 44.0698C43.5756 38.4911 45.6268 26.4038 46.1008 21.4229C46.1424 20.9865 46.0901 20.4281 46.0482 20.1829C46.0062 19.9377 45.9185 19.5884 45.5998 19.3298C45.2224 19.0236 44.6398 18.959 44.3792 18.9636C43.1944 18.9845 41.3767 19.6165 32.6288 23.2551Z" fill="white"/>
</svg>
