<svg width="63" height="63" viewBox="0 0 63 63" fill="none" xmlns="http://www.w3.org/2000/svg">
<path d="M62.3725 18.9006C62.3725 18.9006 61.7572 14.557 59.8623 12.6498C57.4629 10.1396 54.7805 10.1273 53.55 9.97969C44.7398 9.33984 31.5123 9.33984 31.5123 9.33984H31.4877C31.4877 9.33984 18.2602 9.33984 9.45 9.97969C8.21953 10.1273 5.53711 10.1396 3.1377 12.6498C1.24277 14.557 0.639844 18.9006 0.639844 18.9006C0.639844 18.9006 0 24.007 0 29.1012V33.8754C0 38.9695 0.627539 44.076 0.627539 44.076C0.627539 44.076 1.24277 48.4195 3.12539 50.3268C5.5248 52.8369 8.67481 52.7508 10.0775 53.0215C15.1225 53.5014 31.5 53.649 31.5 53.649C31.5 53.649 44.7398 53.6244 53.55 52.9969C54.7805 52.8492 57.4629 52.8369 59.8623 50.3268C61.7572 48.4195 62.3725 44.076 62.3725 44.076C62.3725 44.076 63 38.9818 63 33.8754V29.1012C63 24.007 62.3725 18.9006 62.3725 18.9006ZM24.9908 39.6709V21.9645L42.0082 30.8484L24.9908 39.6709Z" fill="white"/>
</svg>
